<?xml version="1.0" encoding="utf-8"?>
<!-- Generator: Adobe Illustrator 26.0.0, SVG Export Plug-In . SVG Version: 6.00 Build 0)  -->
<svg version="1.1" id="Capa_1" xmlns="http://www.w3.org/2000/svg" xmlns:xlink="http://www.w3.org/1999/xlink" x="0px" y="0px"
	 viewBox="0 0 3471.71 1549.96" style="enable-background:new 0 0 3471.71 1549.96;" xml:space="preserve">
<style type="text/css">
	.st0{fill:#252122;}
	.st1{fill:#FDFDFD;}
	.st2{fill:#FBF001;}
</style>
<g>
	<path class="st0" d="M1657.02,1271.42c-419.8,0-839.6-0.01-1259.41,0.09c-3.75,0-4.59-0.84-4.59-4.59
		c0.1-345.61,0.1-691.21,0-1036.82c0-3.75,0.84-4.59,4.59-4.59c839.6,0.1,1679.21,0.1,2518.81,0c3.75,0,4.59,0.84,4.59,4.59
		c-0.1,345.61-0.1,691.21,0,1036.82c0,3.75-0.84,4.59-4.59,4.59C2496.62,1271.41,2076.82,1271.42,1657.02,1271.42z M1718.82,474.64
		c11.71-2.73,22.01-5.56,31.35-10.6c33.72-18.17,49.62-46.76,47.69-84.88c-1.98-38.99-26.06-67.21-64.18-75.88
		c-20.92-4.75-42.25-5.56-63.6-5.6c-53.99-0.09-107.99-0.02-161.98-0.03c-9.73,0-9.72-0.03-9.72,9.86
		c-0.01,93.65-0.02,187.29-0.03,280.94c0,6.17-0.07,12.33,0.05,18.49c0.15,7.34,0.22,7.38,7.4,7.38
		c14.16,0.01,28.33-0.04,42.49-0.06c16-0.02,31.99-0.12,47.99-0.02c3.77,0.02,5.34-1.14,5.19-5.15c-0.28-7.15-0.08-14.33-0.07-21.49
		c0.02-32.32,0.05-64.65,0.05-96.97c0-2.41-0.3-4.77,3.28-4.82c15.82-0.21,30.05,2.94,39.96,16.94
		c9.27,13.09,16.42,27.4,24.38,41.24c12.54,21.79,24.84,43.72,37.28,65.57c1.28,2.24,2.2,4.63,5.76,4.61
		c36.16-0.17,72.32-0.2,108.48-0.17c3.74,0,3.75-1.02,2.12-3.97c-9.96-18.08-19.58-36.34-29.65-54.35
		c-9.89-17.69-18.06-36.43-31.61-51.92c-8.7-9.95-17.31-19.85-30.53-24.08C1727.16,478.48,1723.59,476.65,1718.82,474.64z
		 M2194.83,475.05c0.35-1.08,1.02-1.11,1.67-1.25c10.63-2.22,20.99-5.47,30.42-10.78c32.47-18.25,47.64-46.31,45.93-83.41
		c-1.79-38.78-26.01-67.7-63.76-76.27c-20.6-4.68-41.58-5.6-62.6-5.64c-55.5-0.12-110.99-0.05-166.49-0.05
		c-6.94,0-6.96,0.04-6.95,7.11c0.03,89.32,0.06,178.63,0.1,267.95c0,11.5-0.06,23,0.07,34.49c0.08,7.08,0.21,7.17,7.14,7.17
		c28.66-0.01,57.33,0,85.99-0.16c12.29-0.07,10,0.94,10.05-10.08c0.16-37.66,0.19-75.32,0.07-112.98c-0.01-4.46,1.43-5.45,5.74-5.51
		c19.62-0.28,33.57,8.38,43.11,25.35c18.68,33.22,37.7,66.25,56.5,99.41c1.34,2.36,2.63,3.85,5.67,3.84
		c35.66-0.14,71.32-0.14,106.99-0.23c5.37-0.01,5.34-0.13,2.86-4.69c-13.53-24.85-27.25-49.59-40.5-74.59
		c-8.98-16.95-20.1-32.15-33.96-45.37c-3.54-3.38-7.71-5.75-12.22-7.61C2205.34,479.57,2200.08,477.28,2194.83,475.05z
		 M2048.52,898.07c0.8,1.8,0.18,3.56,0.01,5.3c-1.23,12.43-2.69,24.84-3.65,37.29c-3.41,44.42-1.34,88.93-2.03,133.39
		c-0.07,4.46,1.06,6.06,5.72,6.02c24.82-0.24,49.65-0.28,74.48-0.16c4.34,0.02,5.62-1.27,5.61-5.65
		c-0.14-85.97-0.15-171.94-0.04-257.91c0.01-4.07-0.88-5.4-5.14-5.38c-34.99,0.22-69.98,0.17-104.97,0.29
		c-7.82,0.03-7.82,0.18-9.8,7.85c-10.26,39.64-20.52,79.28-30.78,118.92c-2.44,9.41-4.86,18.82-7.32,28.36
		c-2.18-0.84-1.93-2.41-2.24-3.56c-4.47-16.73-8.88-33.47-13.29-50.21c-8.36-31.71-16.8-63.4-24.95-95.17
		c-1.27-4.93-3.44-6.46-8.5-6.35c-15.99,0.36-31.99,0.15-47.99,0.17c-20.83,0.03-41.66,0.14-62.49,0.03
		c-3.49-0.02-4.67,1.03-4.54,4.5c0.22,5.66,0.01,11.33,0.01,16.99c0,80.64,0.03,161.28-0.06,241.92c0,3.78,0.85,5.19,4.93,5.15
		c23.16-0.18,46.32-0.15,69.48-0.01c3.88,0.02,5.04-1.15,5.01-5.1c-0.19-31.32-0.04-62.65-0.21-93.97
		c-0.13-23.85-2.2-47.56-5.49-71.18c-0.5-3.56-0.75-7.15-1.12-10.72c1.31,0.44,1.63,0.98,1.79,1.57
		c7.36,26.63,14.72,53.27,22.06,79.91c8.71,31.62,17.43,63.23,26.06,94.87c0.85,3.11,2.01,4.75,5.69,4.72
		c19.66-0.18,39.32-0.14,58.98-0.06c3.13,0.01,4.54-0.89,5.43-4.18c15.69-57.99,31.55-115.94,47.41-173.89
		C2046.96,900.52,2046.55,898.72,2048.52,898.07z M1263.72,899.02c0.4-0.06,0.81-0.11,1.21-0.17c0.39,1.03,0.86,2.04,1.16,3.1
		c8.33,30.16,16.64,60.32,24.96,90.48c7.61,27.6,15.26,55.19,22.78,82.82c0.92,3.39,2.36,4.79,6.14,4.75
		c18.99-0.23,37.99-0.32,56.98-0.01c4.67,0.07,6.25-1.6,7.34-5.79c4.44-17.08,9.23-34.06,13.87-51.09
		c11.03-40.47,22.04-80.95,33.11-121.42c0.3-1.08,0.08-2.72,1.89-3.02c0.81,1.16,0.26,2.3,0.13,3.41
		c-1.98,16.88-3.76,33.78-4.57,50.76c-1.92,40.3-0.46,80.63-1.12,120.94c-0.08,4.95,1.66,6.21,6.24,6.18
		c24.49-0.17,48.99-0.21,73.48-0.05c4.59,0.03,5.86-1.41,5.85-5.95c-0.1-85.81-0.06-171.62,0.07-257.42
		c0.01-4.07-1.04-5.41-5.27-5.39c-34.83,0.17-69.65,0.09-104.48,0.14c-8.17,0.01-8.18,0.09-10.22,8.01
		c-12.25,47.55-24.48,95.1-36.75,142.64c-0.37,1.45-0.2,3.33-2.64,4.07c-1.29-4.7-2.61-9.3-3.82-13.92
		c-11.99-45.56-23.97-91.11-35.9-136.68c-0.71-2.7-1.56-4.29-4.9-4.28c-37.49,0.16-74.98-0.5-112.47,0.07
		c-4.29,0.07-5.69,1.21-5.68,5.63c0.12,85.97,0.11,171.95-0.01,257.92c-0.01,4.27,1.48,5.35,5.41,5.32
		c23.16-0.16,46.32-0.23,69.48-0.13c3.88,0.02,4.59-1.41,4.57-4.96c-0.15-18.99-0.04-37.99,0-56.98
		c0.06-29.99,0.38-59.98-3.31-89.83C1266.04,918.47,1264.89,908.74,1263.72,899.02z M2447.07,455.78c-0.08,0-0.16,0-0.24,0
		c0,50.65-0.01,101.3,0.02,151.95c0,6.68,0.12,6.71,6.82,6.71c79.15,0,158.3-0.01,237.44-0.02c10.5,0,20.99-0.07,31.49-0.05
		c2.68,0.01,4.32-0.47,4.29-3.84c-0.21-21.49-0.28-42.98-0.26-64.48c0-3.2-1.39-4-4.18-3.96c-5.66,0.08-11.33,0.02-16.99,0.03
		c-48.99,0.12-97.98,0.24-146.96,0.35c-8.54,0.02-8.52-0.01-8.52-8.77c0-14.66-0.02-29.32-0.03-43.98c0-9.17,0-9.16,9.02-9.17
		c48.15-0.06,96.31-0.17,144.46-0.12c4.26,0,5.75-1.12,5.66-5.62c-0.29-15.16-0.07-30.32-0.14-45.48
		c-0.02-4.45,1.83-10.22-0.93-12.98c-2.75-2.75-8.53-0.98-12.97-0.98c-46.49,0.05-92.98,0.13-139.47,0.35
		c-4.08,0.02-5.8-0.65-5.65-5.38c0.39-12.15,0.09-24.32,0.09-36.48c0-8.42,0.02-8.38,8.43-8.39c52.65-0.05,105.31-0.2,157.96-0.04
		c5.11,0.02,5.6-1.95,5.56-6.07c-0.21-18.49-0.21-36.99-0.27-55.48c-0.02-6.32,0-6.34-6.49-6.33
		c-87.31,0.02-174.63,0.11-261.94-0.08c-5.3-0.01-6.31,1.52-6.3,6.38C2447.13,354.48,2447.07,405.13,2447.07,455.78z
		 M1047.85,456.08c-0.05,0-0.1,0-0.15,0c0,50.82,0.06,101.64-0.09,152.46c-0.01,4.73,1.29,6.1,6.11,6.08
		c65.49-0.22,130.98-0.24,196.47-0.28c24.16-0.02,48.33-0.05,72.49,0.1c4.14,0.03,5.35-1.32,5.29-5.46
		c-0.23-17.66-0.13-35.32-0.1-52.98c0.02-14.16,0.06-13.97-14.23-13.91c-52.66,0.2-105.32,0.2-157.97,0.46
		c-4.06,0.02-4.93-1.22-4.88-5.04c0.23-16.99,0.45-34,0.02-50.98c-0.14-5.34,1.52-6.17,6.27-6.15c33.83,0.18,67.65,0.11,101.48,0.1
		c15.5-0.01,31-0.19,46.49-0.03c4.18,0.04,5.28-1.35,5.22-5.46c-0.26-18.16-0.27-36.32-0.14-54.48c0.03-3.78-0.77-5.23-4.94-5.15
		c-13.33,0.25-26.66,0-39.99,0.02c-35.49,0.06-70.99,0.16-106.48,0.24c-7.84,0.02-7.82,0.02-7.78-8.03
		c0.06-11.5,0.1-22.99,0.14-34.49c0.03-7.76,0.02-7.72,7.94-7.72c52.82-0.01,105.65-0.07,158.47,0.01c4.04,0.01,5.4-1.06,5.33-5.33
		c-0.29-18.99-0.4-37.99-0.13-56.98c0.07-4.84-1.56-5.68-5.91-5.67c-87.82,0.16-175.64,0.23-263.46,0.14
		c-4.46,0-5.58,1.23-5.57,5.57C1047.9,354.11,1047.85,405.1,1047.85,456.08z M624.2,455.06c-0.03,0-0.06,0-0.08,0
		c0,49.49,0,98.98,0.01,148.47c0,2.33,0.11,4.66,0.16,6.99c0.05,2.76,1,3.99,4.2,3.98c31.16-0.16,62.32-0.23,93.48-0.04
		c5.25,0.03,6.22-1.87,6.2-6.69c-0.21-36.49-0.13-72.98-0.13-109.47c0-13.02,0.01-12.93,12.83-13.01
		c37.16-0.24,74.32,0.51,111.48-0.24c4-0.08,4.65-1.67,4.63-5.04c-0.15-18.33-0.28-36.66-0.14-54.98c0.03-3.73-1.34-4.44-4.62-4.36
		c-8.83,0.2-17.66,0.15-26.49,0.16c-31.16,0.01-62.32-0.02-93.49,0.04c-2.94,0.01-4.39-0.35-4.32-4.02
		c0.28-15.49,0.25-30.99,0.11-46.49c-0.03-3.29,0.57-5.1,4.28-4.66c1.64,0.19,3.33,0.05,5,0.05c45.33,0,90.66-0.07,135.98,0.08
		c4.47,0.01,5.53-1.36,5.47-5.67c-0.27-18.83-0.37-37.66-0.07-56.48c0.08-5.08-1.25-6.32-6.29-6.31
		c-80.82,0.23-161.65,0.3-242.47,0.22c-4.79,0-5.79,1.59-5.78,6.02C624.25,354.08,624.2,404.57,624.2,455.06z M1652.17,843.21
		c-11.41-0.13-22.57,1.23-33.58,4.37c-24.93,7.11-38.98,29.84-33.44,54.6c2.44,10.88,8.74,19.68,15.51,28.18
		c2.05,2.57,2.76,3.75-1.26,5.4c-11.29,4.61-21.93,10.45-30.71,19.2c-17.92,17.85-21.06,43.53-7.41,63.87
		c8,11.92,19.34,19.51,33.02,23.69c20.47,6.26,41.37,6.14,62.4,4.3c18-1.58,35.08-6.31,50.61-15.61c3.83-2.29,6.4-2.09,9.83-0.01
		c8.53,5.18,17.21,10.1,25.81,15.16c2.07,1.22,3.58,1.53,5.54-0.69c8.15-9.24,16.45-18.36,24.94-27.28c2.88-3.03,3.15-4.52-0.8-6.84
		c-8.03-4.71-15.64-10.15-23.62-14.95c-3.03-1.82-3.32-3.27-1.55-6.19c5.55-9.14,9.85-18.85,12.76-29.18
		c0.72-2.57,0.34-3.43-2.36-3.97c-12.24-2.47-24.45-5.04-36.62-7.84c-3.79-0.87-5.85-0.24-6.88,3.82c-0.81,3.19-2.49,6.15-3.76,9.23
		c-1.09,2.62-2.23,3.65-5.01,1.37c-8.12-6.65-16.36-13.13-23.93-20.41c-4.33-4.16-4.21-4.16,0.87-7.72
		c9.64-6.75,20.16-12.3,27.61-21.93c17.04-22.03,10.46-50.29-14.69-62.45C1681.74,844.68,1667.06,843.43,1652.17,843.21z
		 M1720.27,813.54c7.64,1.68,13.66-0.62,17.47-7.85c9.96-18.93,18.15-38.59,23.63-59.27c2.64-9.97,4.46-20.15,6.52-30.27
		c0.4-1.99,1.4-4.74-1.04-5.84c-2.22-1-4.05,1.08-5.48,2.65c-1.89,2.08-3.62,4.34-5.24,6.65c-10.56,15.16-19.86,31.23-32.41,44.93
		c-8.87,9.68-17.87,9.21-25.85-1.14c-1.22-1.58-2.31-3.26-3.38-4.95c-4.73-7.51-7.84-15.8-11.4-23.87
		c-4.58-10.39-9.38-20.66-16.71-29.44c-4.36-5.22-7.89-5.22-12.48-0.34c-2.15,2.29-4.11,4.82-5.82,7.46
		c-5,7.71-8.31,16.3-12.36,24.5c-4.63,9.39-8.01,19.47-14.63,27.77c-6.92,8.67-15,9.2-23.18,1.73
		c-7.71-7.04-12.97-16.02-19.04-24.34c-6.48-8.88-12.67-17.96-19-26.94c-1.75-2.48-3.91-5.69-7.04-4.31
		c-2.74,1.22-0.58,4.8-0.76,7.33c-0.02,0.32,0.09,0.66,0.15,0.99c5.01,29.11,14.81,56.59,27.67,83.13
		c4.53,9.34,10.89,12.93,21.09,11.66c12.23-1.52,24.56-2.12,36.84-3.28C1665.4,807.92,1692.7,812.12,1720.27,813.54z
		 M875.19,1201.44c-0.08,0-0.15,0-0.23,0c0,12.65,0.12,25.29-0.07,37.93c-0.06,3.69,1.09,5.01,4.82,4.93
		c10.81-0.24,21.63-0.09,32.44-0.31c8.37-0.17,16.06-2.54,22.62-7.99c11.49-9.55,10.5-27.96-2.36-33.97
		c-3.82-1.78-1.31-2.99,0.15-4.53c10.05-10.59,7.83-26.67-4.67-34.22c-5.4-3.27-11.28-4.86-17.56-4.93
		c-10.15-0.11-20.3,0.02-30.45-0.25c-3.82-0.1-4.81,1.28-4.76,4.91C875.3,1175.81,875.19,1188.63,875.19,1201.44z M2486.9,1201.2
		c-0.03,0-0.07,0-0.1,0c0,6.32-0.38,12.68,0.09,18.97c0.69,9.3,5.34,16.48,13.76,20.62c13.1,6.43,26.68,6.64,40.24,1.63
		c10.13-3.74,16.08-11.41,17.11-22.04c1.23-12.59,1.11-25.3,0.05-37.91c-0.86-10.31-6.41-17.8-16.03-21.73
		c-13.41-5.48-26.94-5.69-40.22,0.51c-9.05,4.23-14.12,11.56-14.84,21.49C2486.54,1188.85,2486.9,1195.04,2486.9,1201.2z
		 M1086.85,1200.92c-0.03,0-0.06,0-0.1,0c0,12.48,0.15,24.97-0.08,37.45c-0.08,4.32,0.82,6.54,5.72,6.06
		c4.29-0.42,8.65-0.3,12.97-0.19c3.02,0.07,4.06-1.07,3.96-4.13c-0.23-7.15-0.14-14.31-0.19-21.47c-0.01-1.29-0.52-2.94,1.4-3.15
		c3.28-0.36,6.56-0.92,8.65,2.96c2.75,5.12,6.36,9.82,8.79,15.08c3.97,8.61,9.88,12.72,19.54,10.76c2.24-0.46,4.65-0.03,6.98-0.16
		c1.24-0.07,2.88,0.84,3.65-0.63c0.73-1.39-0.69-2.44-1.37-3.5c-5.21-8.12-10.36-16.28-15.77-24.26c-1.9-2.8-2.62-4.42,1.17-6.29
		c3.58-1.76,6.23-4.87,8.16-8.52c9.68-18.3-0.51-38.31-21.3-41.56c-12.9-2.02-25.92-0.79-38.89-1.12c-3.22-0.08-3.31,1.89-3.31,4.23
		C1086.86,1175.29,1086.85,1188.1,1086.85,1200.92z M2380.2,1244.29c-6.66-10.46-12.56-19.89-18.66-29.19
		c-1.56-2.38-1.99-3.67,1.01-5.28c3.53-1.89,6.33-4.8,8.37-8.38c10.34-18.08,0.3-38.45-20.99-42.05
		c-12.89-2.18-25.94-0.86-38.92-0.98c-2.74-0.03-3.32,1.42-3.32,3.77c0.01,26.16,0,52.31-0.06,78.47c-0.01,2.84,1.25,3.77,3.96,3.68
		c4.99-0.17,10-0.27,14.99-0.11c2.85,0.09,3.77-0.8,3.68-3.7c-0.22-7.16-0.04-14.32-0.18-21.49c-0.04-2.05-0.11-3.47,2.61-3.66
		c3.42-0.25,5.83,0.18,7.76,3.69c4.08,7.43,8.8,14.52,13.2,21.78c1.28,2.11,2.72,3.57,5.51,3.51
		C2365.8,1244.19,2372.43,1244.29,2380.2,1244.29z M2190.93,1200.85c0,5.83-0.12,11.16,0.03,16.49
		c0.32,11.62,5.74,20.03,16.51,24.55c12.36,5.19,25.02,5.33,37.53,0.64c11.29-4.23,17.33-12.81,17.77-24.78
		c0.4-10.98,0.35-22-0.03-32.98c-0.34-9.97-4.57-18.26-13.77-22.79c-14.62-7.19-29.58-7.3-44.26,0.01
		c-7.29,3.63-11.53,9.83-13.01,17.91C2190.39,1187.03,2191.31,1194.21,2190.93,1200.85z M759.46,1190.23c-0.02,0-0.05,0-0.07,0
		c0,9.33-0.2,18.66,0.05,27.98c0.31,11.44,5.83,19.59,16.5,23.95c11.59,4.74,23.38,4.87,35.11,0.61
		c11.65-4.23,17.66-12.89,17.84-25.12c0.28-18.65,0.05-37.31,0.14-55.97c0.01-2.55-0.73-3.6-3.41-3.51
		c-4.66,0.17-9.35,0.29-13.99-0.03c-4.47-0.31-5.91,1.05-5.83,5.78c0.3,17.49,0.22,34.98,0.04,52.47
		c-0.08,8.07-3.21,11.5-10.22,12.27c-7.73,0.85-13.1-3.49-13.15-11.24c-0.14-18.32-0.09-36.65,0.11-54.97
		c0.04-3.3-0.84-4.49-4.15-4.34c-4.82,0.22-9.67,0.28-14.49,0.05c-3.51-0.17-4.62,1.09-4.54,4.57
		C759.59,1171.9,759.46,1181.07,759.46,1190.23z M1577.67,1244.15c3.88,0,6.38,0.04,8.87-0.02c0.79-0.02,1.88-0.05,2.28-0.53
		c0.84-1-0.24-1.81-0.85-2.52c-3.03-3.54-5.96-7.17-9.19-10.52c-1.83-1.9-2.21-3.32-0.48-5.51c3.14-3.95,4.59-8.84,6.97-13.22
		c1.41-2.6,0.69-3.66-2.19-3.63c-3.83,0.04-7.67,0.17-11.49-0.08c-2.64-0.17-4.6,0.32-5.6,2.96c-1.24,3.27-2.6,1.93-4.15,0.18
		c-2.42-2.74-4.87-5.48-7.49-8.03c-1.93-1.87-1.78-3.07,0.3-4.73c3.64-2.91,7.05-6.12,9.78-9.94c7.36-10.3,4.1-23.83-7.38-29.01
		c-9.39-4.24-19.11-4.25-28.52,0.21c-10.07,4.77-13.86,15.5-9.18,25.58c1.68,3.62,3.51,7.21,6.36,10.1
		c1.84,1.86,1.52,3.17-0.46,4.84c-4.47,3.76-8.56,7.91-11.32,13.18c-5.94,11.33-2.47,22.43,8.91,28.17
		c12.56,6.34,25.04,5.53,37.44-0.57c1.68-0.83,3.92-3.05,5.29-0.82C1569.03,1245.84,1574.3,1243.84,1577.67,1244.15z
		 M1380.55,1219.27c0-0.01,0-0.02,0-0.03c-2.83,0-5.67,0.09-8.49-0.03c-2.96-0.13-3.75,1.11-3.28,3.95
		c1.28,7.69,4.81,13.94,11.84,17.52c13.71,6.97,27.92,7.25,42.04,1.54c8.55-3.46,14.44-9.86,14.96-19.52
		c0.51-9.5-4.27-16.53-12.07-21.57c-6.73-4.35-13.91-7.84-21.3-10.92c-3.1-1.3-6.07-2.88-8.25-5.48c-2.02-2.41-3.34-5.33-1.06-8.15
		c2.55-3.16,6.34-3.45,10.09-2.93c3.19,0.44,6.29,1.2,7.19,5.07c0.42,1.81,0.96,3.47,3.51,3.37c5.66-0.22,11.32-0.22,16.98-0.29
		c2.2-0.03,3.49-0.73,3.05-3.3c-0.93-5.39-2.68-10.43-7.18-13.84c-13.03-9.89-27.36-10.08-42.17-5.05
		c-8.53,2.9-14.34,8.58-15.28,17.9c-0.95,9.47,3.81,16.26,11.36,21.3c6.24,4.17,13.03,7.37,19.77,10.65
		c3.61,1.76,7.14,3.68,9.71,6.86c1.96,2.43,3.2,5.08,1.24,8.22c-2.61,4.2-6.87,4.39-11.02,4.37c-3.98-0.02-8.16-1.24-9.34-5.32
		c-1.17-4.05-3.21-4.83-6.8-4.34C1384.24,1219.47,1382.38,1219.27,1380.55,1219.27z M2095.3,1219.28c0-0.01,0-0.02,0-0.03
		c-3.16,0-6.33-0.01-9.49,0c-2.01,0.01-3.12,0.72-2.73,3.03c1.39,8.17,5.09,14.9,12.69,18.66c13.26,6.56,26.96,6.75,40.67,1.56
		c8.69-3.29,14.7-9.27,15.61-18.95c0.93-10-3.91-17.2-12.03-22.51c-5.87-3.84-12.15-6.9-18.56-9.7c-2.74-1.2-5.46-2.41-7.92-4.19
		c-3.18-2.29-5.57-4.93-4.63-9.13c0.7-3.1,3.47-3.94,6.12-4.34c4.06-0.6,9.33-0.72,10.66,3.26c1.9,5.65,5.36,5.13,9.51,4.97
		c3.99-0.15,8-0.29,11.98-0.01c3.19,0.22,3.77-1.01,3.23-3.79c-1.52-7.84-5.38-13.96-12.84-17.3c-12.29-5.5-24.8-5.86-37.36-0.95
		c-7.79,3.04-13.26,8.27-14.43,16.96c-1.19,8.87,2.92,15.41,9.57,20.66c4.07,3.21,8.67,5.55,13.27,7.91
		c5.03,2.58,10.18,4.99,14.91,8.05c3.52,2.28,6.78,5.58,4.66,10.39c-2.06,4.66-6.69,5.11-11.09,5.13c-4.23,0.02-8.87-1.5-9.74-5.51
		c-1.01-4.65-3.28-4.46-6.57-4.2C2098.98,1219.4,2097.14,1219.28,2095.3,1219.28z M2608.24,1219.26c0-0.02,0-0.04,0-0.06
		c-2.67,0-5.34,0.1-8-0.03c-3.03-0.14-4.23,0.84-3.63,4.1c1.4,7.66,4.89,13.91,11.94,17.49c13.56,6.88,27.65,7.1,41.61,1.59
		c8.75-3.45,14.77-9.91,15.3-19.83c0.5-9.34-4.23-16.2-11.8-21.22c-6.82-4.53-14.22-7.98-21.73-11.19
		c-3.09-1.32-6.07-2.91-8.19-5.56c-1.97-2.46-3.11-5.3-0.79-8.18c4.05-5.02,14.76-3.37,17.11,2.65c0.75,1.91,1.5,3.11,3.85,3.01
		c5.49-0.23,10.99-0.26,16.49-0.31c2.52-0.02,3.65-0.91,3.17-3.66c-1.28-7.36-4.85-13.19-11.56-16.57
		c-12.25-6.16-24.95-6.64-37.78-1.94c-8.22,3.01-14.1,8.39-15.2,17.49c-1.13,9.44,3.37,16.38,10.91,21.53
		c6.2,4.24,13.03,7.39,19.75,10.71c3.6,1.78,7.16,3.63,9.86,6.68c2.37,2.69,3.5,5.68,1.2,9.07c-3.88,5.72-17.63,5.26-19.86-1.15
		c-1.56-4.5-3.86-5.03-7.64-4.63C2611.59,1219.4,2609.91,1219.26,2608.24,1219.26z M1696.5,1230c0,0.08,0,0.16,0,0.24
		c3.49,0,7.5-1.08,10.34,0.28c3.38,1.62,2.35,6.48,3.45,9.85c0.92,2.81,2.22,4.1,5.29,3.95c5.15-0.26,10.32-0.33,15.48-0.2
		c3.02,0.07,3.38-1.09,2.59-3.62c-8.22-26.36-16.42-52.73-24.54-79.12c-0.72-2.34-1.93-3.11-4.32-3.04
		c-5.49,0.16-11,0.25-16.48,0.02c-3.28-0.14-4.65,1.09-5.54,4.2c-2.57,8.95-5.54,17.78-8.3,26.68
		c-5.23,16.84-10.36,33.71-15.67,50.52c-1.01,3.21-0.66,4.63,3.11,4.46c4.99-0.22,10-0.21,14.98,0c3.15,0.13,4.35-1.29,5.11-4.13
		c2.73-10.15,2.82-10.13,13.5-10.08C1695.83,1230,1696.17,1230,1696.5,1230z M1298.34,1158.39c-2.5,0-5.03,0.25-7.48-0.06
		c-3.7-0.47-5.42,1.11-6.27,4.56c-0.91,3.71-2.22,7.31-3.36,10.97c-6.86,22.07-13.7,44.14-20.6,66.19c-0.9,2.87-0.6,4.41,2.94,4.27
		c4.99-0.2,10-0.36,14.97-0.03c3.15,0.21,4.33-0.89,5.19-3.79c3.08-10.5,3.19-10.51,14.32-10.48c3.8,0.01,8.2-0.85,11.22,0.76
		c2.71,1.45,2.1,6.29,3.08,9.6c0.84,2.81,2.1,4.17,5.25,3.96c4.48-0.3,8.98-0.11,13.48-0.19c5.64-0.1,5.64-0.12,3.95-5.62
		c-7.04-22.88-14.1-45.76-21.13-68.65C1310.36,1158.37,1310.37,1158.36,1298.34,1158.39z M1987.65,1201.27c-0.04,0-0.09,0-0.13,0
		c0,12.33,0.18,24.66-0.1,36.97c-0.1,4.45,0.99,6.22,5.75,6.13c13.66-0.26,27.32-0.1,40.98-0.11c12.34-0.01,12.21-0.01,12.39-12.21
		c0.05-3.52-0.96-4.63-4.49-4.55c-9.32,0.21-18.66-0.02-27.98,0.12c-2.9,0.04-4.3-0.61-4.1-3.84c0.25-3.98,0.18-7.99,0.09-11.99
		c-0.06-2.35,0.72-3.19,3.19-3.1c5.49,0.19,10.99,0.07,16.49,0.03c12.4-0.09,12.31-0.1,11.95-12.47c-0.09-2.98-1.27-3.69-3.93-3.63
		c-5.16,0.12-10.33,0.02-15.49,0.04c-12.05,0.04-12.05,0.05-12.17-11.7c0-0.33,0.04-0.68-0.02-1c-0.68-3.59,0.48-5.08,4.42-4.89
		c5.98,0.29,11.99,0.04,17.99-0.01c15.54-0.14,11.75,2.06,12.32-13.23c0.1-2.59-0.93-3.54-3.5-3.53
		c-16.49,0.09-32.98,0.17-49.47,0.07c-3.36-0.02-4.25,1.28-4.23,4.41C1987.72,1175.62,1987.65,1188.44,1987.65,1201.27z
		 M983.86,1200.93c0.03,0,0.05,0,0.08,0c0,12.82,0.1,25.63-0.06,38.45c-0.05,3.85,1.17,5.19,5.18,5.11
		c13.98-0.27,27.96-0.15,41.95-0.21c12.55-0.05,12.42-0.07,12.24-12.77c-0.05-3.46-1.27-4.1-4.41-4.02
		c-9.32,0.22-18.64,0-27.96,0.17c-3,0.06-4.19-0.76-3.97-3.91c0.28-3.98,0.29-7.99,0.08-11.98c-0.15-2.83,1.07-3.3,3.53-3.22
		c5.32,0.16,10.65,0.04,15.98,0.04c12.05,0.01,11.92,0.02,11.91-11.84c0-3.46-1.3-4.21-4.42-4.15c-7.82,0.15-15.65-0.06-23.47,0.02
		c-2.47,0.03-3.66-0.63-3.54-3.35c0.16-3.65,0.11-7.33-0.09-10.98c-0.14-2.42,0.71-3.18,3.1-3.14c6.16,0.08,12.32-0.12,18.47-0.11
		c13.22,0.01,13.14,0.04,13.08-13.02c-0.01-2.82-0.81-3.8-3.67-3.77c-16.31,0.13-32.63,0.22-48.94,0.07
		c-3.94-0.04-5.2,1.26-5.14,5.16C983.98,1175.96,983.86,1188.44,983.86,1200.93z M1899.61,1201.48c0-5.16-0.02-10.32,0.01-15.49
		c0.04-7.48,2.85-11.31,8.98-12.36c6.76-1.15,11.84,1.6,14.22,8c0.7,1.9,1.23,3.22,3.65,3.12c5.65-0.24,11.32-0.27,16.98-0.29
		c1.93-0.01,2.87-0.68,2.43-2.67c-1.51-6.76-3.49-13.39-9.49-17.59c-13.21-9.26-27.59-9.62-42.42-4.8
		c-11.52,3.75-17.33,12.19-17.78,23.95c-0.46,11.97-0.34,23.98-0.01,35.96c0.3,11.02,5.65,18.95,16.08,23.06
		c10.94,4.31,22.1,4.34,33.34,1.37c11.22-2.96,17.96-10.16,20.35-21.58c0.63-3.02,0.13-4.37-3.19-4.3
		c-4.82,0.1-9.66,0.12-14.47-0.15c-2.92-0.16-4.35,0.55-5.32,3.61c-1.79,5.65-8.5,8.52-15.31,7.18c-5.07-1-7.91-4.81-8.03-11.05
		C1899.52,1212.14,1899.6,1206.81,1899.61,1201.48z M1768.02,1201.43c0,5.66-0.1,11.33,0.02,16.99
		c0.26,11.92,5.78,20.27,17.13,24.38c10.51,3.81,21.21,3.85,31.94,1.08c11.18-2.89,18.2-9.78,20.55-21.33
		c0.64-3.13,0.44-4.75-3.26-4.68c-5.32,0.1-10.65,0.01-15.98-0.15c-2.15-0.06-2.71,1.12-3.36,2.86c-2.37,6.35-7.98,9.21-15.24,7.98
		c-5.58-0.95-8.37-4.96-8.39-12.29c-0.03-10.16,0-20.32,0.06-30.48c0.05-7.37,2.66-10.91,8.71-12c7.15-1.3,12.26,1.43,14.59,8
		c0.6,1.68,0.89,3.08,3.16,3.01c5.82-0.19,11.65-0.27,17.48-0.28c2.04,0,2.7-0.84,2.3-2.74c-1.45-6.98-3.68-13.57-9.89-17.88
		c-12.14-8.43-25.55-9.11-39.2-5.37c-14.48,3.97-20.59,12.77-20.62,27.93C1768.01,1191.44,1768.02,1196.43,1768.02,1201.43z
		 M699.22,1209.72c-0.06,0-0.12,0-0.18,0c0-8.49-0.02-16.98,0-25.47c0.02-9.17,0.04-9.17,9.2-9.16c12.46,0.01,12.26,0,12.6-12.43
		c0.11-4.03-1.28-4.6-4.82-4.56c-16.65,0.19-33.29,0.07-49.94,0.14c-13,0.06-12.92,0.11-12.04,13.46c0.17,2.58,1.04,3.55,3.56,3.5
		c4.49-0.1,9,0.16,13.48-0.08c3.54-0.19,4.89,0.68,4.84,4.65c-0.24,19.81-0.05,39.62-0.17,59.43c-0.02,3.65,0.73,5.59,4.95,5.24
		c4.63-0.39,9.33-0.42,13.97-0.19c3.92,0.19,4.68-1.53,4.61-5.06C699.08,1229.37,699.22,1219.54,699.22,1209.72z M2441.94,1200.9
		c-0.03,0-0.06,0-0.09,0c0-12.82-0.11-25.63,0.08-38.45c0.05-3.32-0.93-4.41-4.22-4.24c-4.82,0.25-9.65,0.19-14.48,0.07
		c-2.64-0.07-3.96,0.63-3.96,3.58c0.02,26.13-0.03,52.26-0.12,78.39c-0.01,3.01,1.23,4.17,4.19,4.07c4.82-0.16,9.66-0.3,14.48-0.12
		c3.31,0.12,4.25-1.09,4.2-4.35C2441.84,1226.87,2441.94,1213.89,2441.94,1200.9z M1220.98,1201.41c-0.03,0-0.06,0-0.08,0
		c0-12.99-0.08-25.97,0.06-38.96c0.03-2.97-0.73-4.23-3.9-4.1c-4.99,0.2-9.99,0.09-14.98,0c-2.41-0.04-3.67,0.7-3.67,3.4
		c0.01,26.14-0.05,52.28-0.14,78.41c-0.01,2.9,0.99,4.28,4.08,4.17c4.82-0.18,9.66-0.27,14.48-0.1c3.29,0.11,4.27-1.12,4.22-4.36
		C1220.88,1227.06,1220.98,1214.23,1220.98,1201.41z M1676.07,824.37c4.32,0.27,8.64,0.54,12.96,0.8
		c11.63,0.71,23.27,1.41,34.9,2.11c3.78,0.23,5.99-1.27,6.21-5.35c0.22-4.09-2.09-5.17-5.55-5.3c-3.33-0.13-6.65-0.31-9.97-0.55
		c-26.05-1.88-52.02-5.52-78.24-2.63c-8.93,0.99-17.91,1.5-26.87,2.25c-5.8,0.49-11.6,1.03-17.4,1.54
		c-3.39,0.29-3.07,2.73-3.05,5.08c0.01,2.6,0.8,4.66,3.72,4.85c2.14,0.14,4.32-0.07,6.48-0.23
		C1624.83,825.01,1650.36,822.24,1676.07,824.37z M1726.33,750.76c-0.05-2.2-7.2-24.59-8.49-26.55c-1.97-3.02-4.61-3.21-6.64,0.05
		c-3.77,6.06-7.29,12.29-10.61,18.6c-4.94,9.38-1.57,18.53,8.17,23.01c1.96,0.9,3.52,0.35,5.08-0.8c4.29-3.2,7.61-7.41,11.41-11.11
		C1726.13,753.1,1726.44,751.99,1726.33,750.76z M1594.35,746.92c-0.6,9.21,3.64,13.35,8.65,16.9c4.88,3.46,7.64,3,11.52-1.65
		c2.12-2.55,4.13-5.19,6.12-7.84c1.01-1.34,2.02-2.93,1.22-4.6c-4.29-8.96-8.25-18.12-13.98-26.31c-1.83-2.62-4.09-2.25-5.45,0.43
		C1598.38,731.87,1595.09,740.18,1594.35,746.92z M1776.52,697.31c-0.08-3.91-3.5-7.66-7.06-7.73c-3.69-0.08-7.51,4.21-7.53,8.45
		c-0.02,4.62,2.92,7.74,7.23,7.68C1773.01,705.66,1776.61,701.56,1776.52,697.31z M1558.01,697.87c-0.08-4.47-3.77-8.4-7.73-8.25
		c-3.77,0.15-7,4.08-6.9,8.41c0.1,4.16,3.59,7.84,7.51,7.91C1554.85,706.01,1558.08,702.34,1558.01,697.87z M1652.6,688.88
		c-0.13,4.47,3.15,8.38,7.22,8.61c3.63,0.21,7.19-3.64,7.3-7.89c0.12-4.69-3.09-8.59-7.08-8.59
		C1656.28,681.01,1652.71,684.78,1652.6,688.88z M1710.65,713.58c-0.07,3.19,1.12,5.26,4.59,5.27c3.52,0,5.38-2.39,5.45-5.31
		c0.08-3.18-2.63-5.02-5.61-5.25C1711.57,708.03,1710.78,710.73,1710.65,713.58z M1603.91,707.81c-2.86,0.71-4.78,2.57-4.6,5.56
		c0.16,2.61,0.84,5.8,4.51,5.3c2.83-0.39,5.73-2.11,5.69-5.28C1609.46,710.43,1607.27,708.32,1603.91,707.81z"/>
	<path class="st1" d="M1718.82,474.64c4.77,2.01,8.34,3.84,12.1,5.05c13.22,4.23,21.83,14.13,30.53,24.08
		c13.55,15.49,21.72,34.23,31.61,51.92c10.08,18.01,19.69,36.28,29.65,54.35c1.63,2.95,1.62,3.97-2.12,3.97
		c-36.16-0.02-72.32,0.01-108.48,0.17c-3.56,0.02-4.48-2.37-5.76-4.61c-12.44-21.85-24.74-43.78-37.28-65.57
		c-7.96-13.84-15.12-28.14-24.38-41.24c-9.91-14.01-24.14-17.16-39.96-16.94c-3.59,0.05-3.28,2.4-3.28,4.82
		c0,32.32-0.03,64.65-0.05,96.97c0,7.16-0.2,14.34,0.07,21.49c0.15,4.01-1.41,5.18-5.19,5.15c-16-0.1-31.99,0-47.99,0.02
		c-14.16,0.02-28.33,0.06-42.49,0.06c-7.17,0-7.25-0.04-7.4-7.38c-0.13-6.16-0.06-12.33-0.05-18.49
		c0.01-93.64,0.02-187.29,0.03-280.94c0-9.88-0.01-9.86,9.72-9.86c53.99,0.01,107.99-0.06,161.98,0.03
		c21.35,0.03,42.68,0.84,63.6,5.6c38.12,8.66,62.2,36.89,64.18,75.88c1.94,38.12-13.97,66.71-47.69,84.88
		C1740.83,469.08,1730.53,471.91,1718.82,474.64z M1601.57,394.11c0.01,0,0.03,0,0.04,0c0,9.48,0,18.97,0,28.45
		c0,2.04-0.16,3.9,2.98,3.84c22.08-0.42,44.25,1.28,66.06-4.19c15.08-3.78,24.15-14.04,24.32-28.65
		c0.17-15.59-7.7-25.42-23.65-29.31c-3.38-0.82-6.85-1.4-10.31-1.72c-18.6-1.71-37.25-0.21-55.87-0.81
		c-3.04-0.1-3.61,1.36-3.59,3.94C1601.62,375.14,1601.57,384.62,1601.57,394.11z"/>
	<path class="st1" d="M2194.83,475.05c5.25,2.23,10.51,4.51,15.82,6.7c4.5,1.86,8.68,4.23,12.22,7.61
		c13.86,13.22,24.99,28.42,33.96,45.37c13.24,25,26.96,49.74,40.5,74.59c2.48,4.55,2.51,4.67-2.86,4.69
		c-35.66,0.09-71.32,0.09-106.99,0.23c-3.04,0.01-4.33-1.47-5.67-3.84c-18.8-33.15-37.82-66.18-56.5-99.41
		c-9.54-16.98-23.49-25.64-43.11-25.35c-4.31,0.06-5.75,1.05-5.74,5.51c0.12,37.66,0.09,75.32-0.07,112.98
		c-0.05,11.02,2.24,10.01-10.05,10.08c-28.66,0.16-57.33,0.15-85.99,0.16c-6.93,0-7.06-0.08-7.14-7.17
		c-0.12-11.5-0.06-23-0.07-34.49c-0.03-89.32-0.07-178.63-0.1-267.95c0-7.07,0.02-7.11,6.95-7.11c55.5,0,110.99-0.06,166.49,0.05
		c21.01,0.04,42,0.97,62.6,5.64c37.75,8.57,61.97,37.49,63.76,76.27c1.71,37.1-13.46,65.16-45.93,83.41
		c-9.43,5.3-19.8,8.56-30.42,10.78C2195.85,473.94,2195.18,473.97,2194.83,475.05z M2076.46,394.57c0.04,0,0.07,0,0.11,0
		c0,9.32,0,18.64,0,27.96c0,2.02-0.25,3.93,2.93,3.87c22.76-0.42,45.62,1.22,68.04-4.67c12.59-3.31,21.69-13.66,22.42-26.7
		c0.81-14.44-6.2-25.19-19.35-29.62c-4.11-1.39-8.34-2.32-12.66-2.75c-19.27-1.9-38.6-0.39-57.9-1.01
		c-3.48-0.11-3.64,1.87-3.63,4.45C2076.49,375.6,2076.46,385.09,2076.46,394.57z"/>
	<path class="st1" d="M2048.52,898.07c-1.97,0.65-1.56,2.44-1.92,3.77c-15.85,57.95-31.72,115.9-47.41,173.89
		c-0.89,3.29-2.31,4.19-5.43,4.18c-19.66-0.08-39.32-0.13-58.98,0.06c-3.67,0.03-4.84-1.61-5.69-4.72
		c-8.63-31.64-17.35-63.25-26.06-94.87c-7.34-26.64-14.7-53.28-22.06-79.91c-0.16-0.59-0.49-1.13-1.79-1.57
		c0.37,3.57,0.62,7.16,1.12,10.72c3.29,23.62,5.37,47.33,5.49,71.18c0.17,31.32,0.02,62.65,0.21,93.97c0.02,3.95-1.13,5.12-5.01,5.1
		c-23.16-0.14-46.32-0.17-69.48,0.01c-4.08,0.03-4.93-1.37-4.93-5.15c0.09-80.64,0.06-161.28,0.06-241.92
		c0-5.66,0.21-11.34-0.01-16.99c-0.13-3.48,1.05-4.52,4.54-4.5c20.83,0.11,41.66,0,62.49-0.03c16-0.02,32,0.19,47.99-0.17
		c5.06-0.11,7.23,1.42,8.5,6.35c8.15,31.76,16.6,63.45,24.95,95.17c4.41,16.74,8.82,33.48,13.29,50.21
		c0.31,1.15,0.06,2.72,2.24,3.56c2.46-9.54,4.88-18.95,7.32-28.36c10.26-39.64,20.52-79.28,30.78-118.92
		c1.98-7.67,1.98-7.82,9.8-7.85c34.99-0.12,69.98-0.07,104.97-0.29c4.26-0.03,5.15,1.3,5.14,5.38
		c-0.11,85.97-0.09,171.94,0.04,257.91c0.01,4.37-1.28,5.67-5.61,5.65c-24.83-0.12-49.65-0.08-74.48,0.16
		c-4.66,0.04-5.79-1.56-5.72-6.02c0.69-44.47-1.37-88.97,2.03-133.39c0.95-12.45,2.42-24.86,3.65-37.29
		C2048.7,901.63,2049.32,899.87,2048.52,898.07z"/>
	<path class="st1" d="M1263.72,899.02c1.18,9.72,2.33,19.45,3.53,29.17c3.7,29.85,3.38,59.85,3.31,89.83
		c-0.04,18.99-0.15,37.99,0,56.98c0.03,3.55-0.69,4.97-4.57,4.96c-23.16-0.11-46.32-0.04-69.48,0.13c-3.93,0.03-5.42-1.05-5.41-5.32
		c0.12-85.97,0.13-171.95,0.01-257.92c-0.01-4.42,1.39-5.57,5.68-5.63c37.49-0.57,74.98,0.09,112.47-0.07
		c3.33-0.01,4.19,1.58,4.9,4.28c11.93,45.57,23.91,91.13,35.9,136.68c1.22,4.62,2.53,9.21,3.82,13.92c2.44-0.74,2.27-2.62,2.64-4.07
		c12.27-47.54,24.5-95.1,36.75-142.64c2.04-7.93,2.06-8,10.22-8.01c34.83-0.04,69.65,0.03,104.48-0.14
		c4.23-0.02,5.28,1.32,5.27,5.39c-0.13,85.81-0.17,171.62-0.07,257.42c0.01,4.54-1.26,5.98-5.85,5.95
		c-24.49-0.17-48.99-0.12-73.48,0.05c-4.58,0.03-6.32-1.23-6.24-6.18c0.65-40.31-0.81-80.64,1.12-120.94
		c0.81-16.98,2.59-33.88,4.57-50.76c0.13-1.11,0.68-2.24-0.13-3.41c-1.81,0.3-1.59,1.94-1.89,3.02
		c-11.07,40.46-22.08,80.94-33.11,121.42c-4.64,17.03-9.43,34.01-13.87,51.09c-1.09,4.19-2.67,5.86-7.34,5.79
		c-18.99-0.3-37.99-0.21-56.98,0.01c-3.78,0.05-5.22-1.36-6.14-4.75c-7.52-27.63-15.17-55.22-22.78-82.82
		c-8.32-30.16-16.63-60.32-24.96-90.48c-0.29-1.06-0.77-2.07-1.16-3.1C1264.53,898.91,1264.12,898.96,1263.72,899.02z"/>
	<path class="st1" d="M2447.07,455.78c0-50.65,0.06-101.3-0.1-151.95c-0.01-4.86,1-6.39,6.3-6.38c87.31,0.18,174.63,0.1,261.94,0.08
		c6.49,0,6.47,0.01,6.49,6.33c0.06,18.49,0.05,36.99,0.27,55.48c0.05,4.12-0.45,6.09-5.56,6.07c-52.65-0.16-105.3-0.01-157.96,0.04
		c-8.41,0.01-8.43-0.03-8.43,8.39c0,12.16,0.3,24.33-0.09,36.48c-0.15,4.73,1.57,5.4,5.65,5.38c46.49-0.22,92.98-0.3,139.47-0.35
		c4.44,0,10.22-1.78,12.97,0.98c2.76,2.76,0.91,8.53,0.93,12.98c0.07,15.16-0.14,30.33,0.14,45.48c0.09,4.5-1.4,5.63-5.66,5.62
		c-48.15-0.05-96.31,0.06-144.46,0.12c-9.02,0.01-9.02,0-9.02,9.17c0.01,14.66,0.03,29.32,0.03,43.98c0,8.76-0.02,8.79,8.52,8.77
		c48.99-0.11,97.98-0.24,146.96-0.35c5.66-0.01,11.33,0.05,16.99-0.03c2.79-0.04,4.19,0.76,4.18,3.96
		c-0.03,21.49,0.05,42.98,0.26,64.48c0.03,3.38-1.61,3.85-4.29,3.84c-10.5-0.02-20.99,0.05-31.49,0.05
		c-79.15,0.01-158.3,0.02-237.44,0.02c-6.71,0-6.82-0.04-6.82-6.71c-0.03-50.65-0.02-101.3-0.02-151.95
		C2446.91,455.78,2446.99,455.78,2447.07,455.78z"/>
	<path class="st1" d="M1047.85,456.08c0-50.99,0.05-101.97-0.09-152.96c-0.01-4.34,1.11-5.58,5.57-5.57
		c87.82,0.08,175.64,0.02,263.46-0.14c4.35-0.01,5.98,0.83,5.91,5.67c-0.27,18.99-0.17,37.99,0.13,56.98
		c0.07,4.27-1.3,5.34-5.33,5.33c-52.82-0.08-105.65-0.02-158.47-0.01c-7.92,0-7.91-0.04-7.94,7.72c-0.04,11.5-0.08,22.99-0.14,34.49
		c-0.04,8.05-0.05,8.05,7.78,8.03c35.49-0.08,70.99-0.19,106.48-0.24c13.33-0.02,26.66,0.23,39.99-0.02
		c4.17-0.08,4.97,1.37,4.94,5.15c-0.13,18.16-0.12,36.32,0.14,54.48c0.06,4.11-1.04,5.5-5.22,5.46c-15.5-0.16-30.99,0.03-46.49,0.03
		c-33.83,0.01-67.66,0.08-101.48-0.1c-4.75-0.03-6.4,0.81-6.27,6.15c0.43,16.98,0.21,33.99-0.02,50.98
		c-0.05,3.81,0.82,5.05,4.88,5.04c52.66-0.25,105.32-0.26,157.97-0.46c14.29-0.05,14.25-0.25,14.23,13.91
		c-0.03,17.66-0.12,35.33,0.1,52.98c0.05,4.14-1.15,5.49-5.29,5.46c-24.16-0.16-48.32-0.12-72.49-0.1
		c-65.49,0.05-130.98,0.06-196.47,0.28c-4.82,0.02-6.13-1.35-6.11-6.08c0.15-50.82,0.09-101.64,0.09-152.46
		C1047.75,456.08,1047.8,456.08,1047.85,456.08z"/>
	<path class="st1" d="M624.2,455.06c0-50.49,0.05-100.98-0.09-151.46c-0.01-4.43,0.99-6.03,5.78-6.02
		c80.82,0.07,161.65,0.01,242.47-0.22c5.04-0.01,6.38,1.23,6.29,6.31c-0.3,18.82-0.2,37.66,0.07,56.48c0.06,4.31-1,5.68-5.47,5.67
		c-45.33-0.15-90.66-0.09-135.98-0.08c-1.67,0-3.35,0.15-5-0.05c-3.71-0.44-4.31,1.37-4.28,4.66c0.14,15.49,0.17,30.99-0.11,46.49
		c-0.07,3.68,1.38,4.03,4.32,4.02c31.16-0.06,62.32-0.03,93.49-0.04c8.83,0,17.67,0.04,26.49-0.16c3.28-0.07,4.65,0.63,4.62,4.36
		c-0.14,18.33-0.01,36.66,0.14,54.98c0.03,3.36-0.63,4.96-4.63,5.04c-37.16,0.75-74.32,0.01-111.48,0.24
		c-12.83,0.08-12.83,0-12.83,13.01c0,36.49-0.07,72.98,0.13,109.47c0.03,4.83-0.95,6.72-6.2,6.69c-31.16-0.19-62.32-0.12-93.48,0.04
		c-3.2,0.02-4.15-1.22-4.2-3.98c-0.05-2.33-0.16-4.66-0.16-6.99c-0.01-49.49-0.01-98.98-0.01-148.47
		C624.15,455.06,624.18,455.06,624.2,455.06z"/>
	<path class="st1" d="M1652.17,843.21c14.89,0.22,29.58,1.47,43.3,8.1c25.15,12.16,31.73,40.43,14.69,62.45
		c-7.45,9.63-17.97,15.19-27.61,21.93c-5.08,3.55-5.2,3.55-0.87,7.72c7.57,7.28,15.82,13.77,23.93,20.41
		c2.78,2.28,3.92,1.25,5.01-1.37c1.27-3.07,2.95-6.04,3.76-9.23c1.03-4.06,3.09-4.69,6.88-3.82c12.16,2.8,24.38,5.38,36.62,7.84
		c2.7,0.54,3.08,1.4,2.36,3.97c-2.91,10.33-7.21,20.04-12.76,29.18c-1.77,2.91-1.48,4.37,1.55,6.19
		c7.99,4.8,15.59,10.24,23.62,14.95c3.95,2.32,3.68,3.81,0.8,6.84c-8.49,8.93-16.79,18.04-24.94,27.28
		c-1.97,2.23-3.47,1.91-5.54,0.69c-8.6-5.06-17.28-9.99-25.81-15.16c-3.44-2.08-6-2.29-9.83,0.01
		c-15.53,9.3-32.61,14.03-50.61,15.61c-21.03,1.85-41.93,1.97-62.4-4.3c-13.67-4.18-25.02-11.77-33.02-23.69
		c-13.65-20.34-10.5-46.03,7.41-63.87c8.78-8.75,19.43-14.59,30.71-19.2c4.02-1.64,3.3-2.83,1.26-5.4
		c-6.77-8.5-13.07-17.31-15.51-28.18c-5.55-24.75,8.5-47.49,33.44-54.6C1629.59,844.44,1640.76,843.08,1652.17,843.21z
		 M1641.68,1013.01c11.8-0.43,22.17-4.78,32.26-10.07c2.44-1.28,1.66-2.28,0.03-3.55c-14.61-11.3-28.64-23.29-42.32-35.69
		c-1.41-1.28-2.41-1.8-4.24-0.53c-4.53,3.14-8.97,6.42-12.51,10.62c-6.42,7.62-6.79,17.64-1.18,25.92
		C1620.46,1009.64,1630.63,1012.49,1641.68,1013.01z M1673.15,886.83c0.09-1.12-0.41-2.84-1.2-4.54
		c-3.93-8.57-16.35-12.07-27.05-7.6c-9.5,3.97-12.86,12.98-8.12,22.13c2.85,5.51,7.02,10.07,11.06,14.73
		c1.55,1.79,2.88,1.72,4.71,0.6c5.98-3.67,11.78-7.57,16.13-13.2C1671.24,895.62,1673.23,891.99,1673.15,886.83z"/>
	<path class="st2" d="M1720.27,813.54c-27.56-1.42-54.87-5.63-82.45-3.03c-12.27,1.16-24.61,1.76-36.84,3.28
		c-10.2,1.27-16.56-2.32-21.09-11.66c-12.86-26.54-22.66-54.02-27.67-83.13c-0.06-0.33-0.17-0.66-0.15-0.99
		c0.18-2.52-1.98-6.11,0.76-7.33c3.12-1.38,5.29,1.83,7.04,4.31c6.34,8.98,12.52,18.07,19,26.94c6.07,8.32,11.34,17.3,19.04,24.34
		c8.17,7.47,16.25,6.94,23.18-1.73c6.62-8.3,10-18.38,14.63-27.77c4.05-8.21,7.36-16.79,12.36-24.5c1.71-2.64,3.66-5.17,5.82-7.46
		c4.6-4.88,8.12-4.89,12.48,0.34c7.33,8.78,12.13,19.05,16.71,29.44c3.56,8.07,6.67,16.36,11.4,23.87c1.06,1.69,2.16,3.37,3.38,4.95
		c7.98,10.35,16.98,10.82,25.85,1.14c12.56-13.7,21.86-29.77,32.41-44.93c1.61-2.31,3.34-4.57,5.24-6.65
		c1.43-1.57,3.25-3.66,5.48-2.65c2.45,1.1,1.44,3.85,1.04,5.84c-2.05,10.12-3.88,20.3-6.52,30.27
		c-5.48,20.68-13.67,40.35-23.63,59.27C1733.93,812.92,1727.9,815.23,1720.27,813.54z M1671.63,783.77
		c-0.98-7.09-4.65-12.3-9.66-16.69c-1.5-1.31-3.15-0.96-4.52,0.28c-4.52,4.11-7.12,9.56-10.07,14.75c-0.62,1.09-0.17,2.29,0.47,3.31
		c2.82,4.51,5.48,9.14,9.09,13.09c1.1,1.2,2.6,2.89,4.22,1.49C1666.28,795.6,1670.27,790.37,1671.63,783.77z"/>
	<path class="st2" d="M875.19,1201.44c0-12.81,0.11-25.63-0.07-38.43c-0.05-3.63,0.94-5.01,4.76-4.91
		c10.14,0.28,20.3,0.14,30.45,0.25c6.28,0.07,12.15,1.67,17.56,4.93c12.5,7.55,14.71,23.63,4.67,34.22
		c-1.46,1.54-3.96,2.74-0.15,4.53c12.86,6.01,13.85,24.42,2.36,33.97c-6.56,5.45-14.25,7.82-22.62,7.99
		c-10.81,0.22-21.63,0.07-32.44,0.31c-3.73,0.08-4.87-1.24-4.82-4.93c0.19-12.64,0.07-25.29,0.07-37.93
		C875.03,1201.44,875.11,1201.44,875.19,1201.44z M897.75,1218.38c-0.14,9.9-0.14,9.91,10.06,9.24c1.97-0.13,3.96-0.15,5.83-1.04
		c3.76-1.8,6.12-4.39,5.77-8.9c-0.37-4.74-3.35-7-7.51-8.09c-1.42-0.37-2.96-0.32-4.45-0.38
		C897.89,1208.86,897.89,1208.86,897.75,1218.38z M897.75,1183.42c-0.07,9.92-0.07,9.92,9.3,9.18c5.77-0.46,9-3.52,9-8.55
		c0-5.15-3.03-8.36-8.57-9.05C897.82,1173.79,897.82,1173.79,897.75,1183.42z"/>
	<path class="st2" d="M2486.9,1201.2c0-6.16-0.36-12.34,0.08-18.47c0.72-9.93,5.79-17.27,14.84-21.49
		c13.28-6.2,26.81-5.99,40.22-0.51c9.62,3.93,15.16,11.42,16.03,21.73c1.06,12.61,1.17,25.32-0.05,37.91
		c-1.04,10.63-6.98,18.29-17.11,22.04c-13.57,5.01-27.15,4.8-40.24-1.63c-8.42-4.13-13.07-11.31-13.76-20.62
		c-0.47-6.29-0.09-12.64-0.09-18.97C2486.84,1201.2,2486.87,1201.2,2486.9,1201.2z M2510.06,1201.56c-0.04,0-0.08,0-0.12,0
		c0,2.66-0.01,5.32,0,7.97c0.02,2.66-0.04,5.32,0.13,7.97c0.45,7.19,4.69,11.13,11.93,11.22c7.72,0.1,12.55-3.65,12.8-10.88
		c0.38-10.95,0.42-21.93,0.14-32.88c-0.19-7.3-5.17-11.43-12.46-11.25c-7.69,0.18-12.03,4.03-12.37,11.41
		C2509.86,1190.59,2510.06,1196.08,2510.06,1201.56z"/>
	<path class="st2" d="M1086.85,1200.92c0-12.82,0.02-25.64-0.01-38.45c-0.01-2.34,0.09-4.31,3.31-4.23
		c12.96,0.33,25.98-0.9,38.89,1.12c20.8,3.26,30.98,23.26,21.3,41.56c-1.93,3.65-4.58,6.76-8.16,8.52c-3.8,1.87-3.07,3.48-1.17,6.29
		c5.41,7.98,10.56,16.15,15.77,24.26c0.69,1.07,2.1,2.11,1.37,3.5c-0.77,1.47-2.41,0.56-3.65,0.63c-2.32,0.13-4.73-0.29-6.98,0.16
		c-9.65,1.96-15.56-2.15-19.54-10.76c-2.43-5.26-6.04-9.95-8.79-15.08c-2.08-3.89-5.37-3.32-8.65-2.96
		c-1.92,0.21-1.41,1.87-1.4,3.15c0.05,7.16-0.04,14.32,0.19,21.47c0.1,3.06-0.94,4.2-3.96,4.13c-4.32-0.1-8.68-0.23-12.97,0.19
		c-4.9,0.48-5.8-1.74-5.72-6.06c0.23-12.48,0.08-24.97,0.08-37.45C1086.78,1200.92,1086.82,1200.92,1086.85,1200.92z
		 M1109.25,1187.51c0.63,3.22-2.09,8.68,1.06,10.96c3.11,2.26,8.36,0.73,12.55-0.38c6.01-1.58,8.77-6.78,7.52-13.68
		c-1.42-7.84-6.22-10.53-17.8-9.39c-6.95,0.69-1.86,6.23-3.28,9.21C1108.97,1184.92,1109.25,1185.88,1109.25,1187.51z"/>
	<path class="st2" d="M2380.2,1244.29c-7.77,0-14.4-0.1-21.03,0.05c-2.79,0.06-4.22-1.4-5.51-3.51c-4.41-7.26-9.12-14.34-13.2-21.78
		c-1.92-3.51-4.34-3.93-7.76-3.69c-2.72,0.2-2.65,1.61-2.61,3.66c0.14,7.16-0.04,14.33,0.18,21.49c0.09,2.9-0.84,3.79-3.68,3.7
		c-4.99-0.16-10-0.06-14.99,0.11c-2.72,0.09-3.97-0.84-3.96-3.68c0.06-26.16,0.08-52.31,0.06-78.47c0-2.35,0.57-3.8,3.32-3.77
		c12.98,0.12,26.03-1.2,38.92,0.98c21.29,3.6,31.33,23.97,20.99,42.05c-2.04,3.58-4.84,6.49-8.37,8.38c-3,1.61-2.57,2.9-1.01,5.28
		C2367.64,1224.4,2373.54,1233.83,2380.2,1244.29z M2330.26,1186.93c-0.02,0-0.05,0-0.07,0c0,2.82,0.18,5.66-0.05,8.47
		c-0.24,2.89,0.85,3.95,3.68,3.67c1.81-0.18,3.66-0.01,5.48-0.16c7.22-0.57,10.32-2.65,11.87-8.55c1.25-4.75,0.62-9.53-3.28-12.81
		c-4.77-4.01-11.05-3.47-16.22-1.99c-3.65,1.04-0.58,6.18-1.38,9.38C2330.12,1185.57,2330.26,1186.27,2330.26,1186.93z"/>
	<path class="st2" d="M2190.93,1200.85c0.38-6.64-0.54-13.82,0.76-20.94c1.48-8.08,5.72-14.28,13.01-17.91
		c14.67-7.31,29.63-7.2,44.26-0.01c9.2,4.53,13.42,12.82,13.77,22.79c0.38,10.98,0.43,22,0.03,32.98
		c-0.43,11.97-6.48,20.55-17.77,24.78c-12.51,4.69-25.16,4.54-37.53-0.64c-10.77-4.52-16.18-12.93-16.51-24.55
		C2190.81,1212.02,2190.93,1206.68,2190.93,1200.85z M2239.26,1201.72c-0.03,0-0.06,0-0.09,0c0-6.14,0.43-12.31-0.12-18.4
		c-0.57-6.31-5.69-9.89-12.39-9.64c-7.11,0.26-11.9,4.16-12.08,10.69c-0.31,11.12-0.37,22.26-0.1,33.38
		c0.17,6.9,5.12,11.05,12.14,11.06c7.4,0.02,12.02-3.64,12.56-10.65C2239.59,1212.7,2239.26,1207.2,2239.26,1201.72z"/>
	<path class="st2" d="M759.46,1190.23c0-9.16,0.13-18.33-0.07-27.49c-0.08-3.48,1.04-4.74,4.54-4.57c4.82,0.23,9.67,0.17,14.49-0.05
		c3.31-0.15,4.19,1.03,4.15,4.34c-0.2,18.32-0.24,36.65-0.11,54.97c0.06,7.75,5.43,12.09,13.15,11.24
		c7.01-0.77,10.13-4.2,10.22-12.27c0.18-17.49,0.26-34.99-0.04-52.47c-0.08-4.72,1.36-6.09,5.83-5.78c4.64,0.32,9.33,0.2,13.99,0.03
		c2.68-0.1,3.42,0.96,3.41,3.51c-0.09,18.66,0.15,37.32-0.14,55.97c-0.18,12.23-6.19,20.89-17.84,25.12
		c-11.74,4.26-23.52,4.13-35.11-0.61c-10.67-4.36-16.19-12.52-16.5-23.95c-0.25-9.32-0.05-18.66-0.05-27.98
		C759.41,1190.23,759.44,1190.23,759.46,1190.23z"/>
	<path class="st2" d="M1577.67,1244.15c-3.37-0.31-8.64,1.69-12.11-3.92c-1.38-2.23-3.61-0.01-5.29,0.82
		c-12.4,6.1-24.87,6.91-37.44,0.57c-11.37-5.74-14.85-16.84-8.91-28.17c2.76-5.26,6.85-9.41,11.32-13.18
		c1.98-1.67,2.3-2.98,0.46-4.84c-2.86-2.89-4.68-6.48-6.36-10.1c-4.68-10.08-0.89-20.81,9.18-25.58c9.41-4.46,19.13-4.45,28.52-0.21
		c11.48,5.18,14.74,18.71,7.38,29.01c-2.73,3.82-6.14,7.03-9.78,9.94c-2.08,1.66-2.22,2.86-0.3,4.73c2.63,2.54,5.07,5.28,7.49,8.03
		c1.55,1.76,2.91,3.1,4.15-0.18c1.01-2.65,2.97-3.13,5.6-2.96c3.82,0.24,7.66,0.12,11.49,0.08c2.88-0.03,3.6,1.03,2.19,3.63
		c-2.38,4.38-3.83,9.28-6.97,13.22c-1.73,2.18-1.36,3.61,0.48,5.51c3.23,3.35,6.17,6.98,9.19,10.52c0.61,0.71,1.69,1.52,0.85,2.52
		c-0.4,0.48-1.49,0.51-2.28,0.53C1584.05,1244.19,1581.55,1244.15,1577.67,1244.15z M1541.72,1230.6c3.42-0.1,6.41-1.62,9.47-2.89
		c2.24-0.93,1.36-2.15,0.21-3.4c-3.49-3.8-6.93-7.63-10.42-11.42c-0.93-1.01-1.92-1.78-3.46-0.92c-2.94,1.63-6.17,8.84-5.4,12.3
		C1532.96,1228.13,1536.78,1230.64,1541.72,1230.6z M1535.97,1177.09c0.02,3.3,4.02,10.33,5.81,10.22
		c2.38-0.15,7.31-7.28,7.26-10.51c-0.07-4.11-2.4-5.98-6.28-6.01C1538.75,1170.76,1535.95,1173.47,1535.97,1177.09z"/>
	<path class="st2" d="M1380.55,1219.27c1.83,0,3.69,0.2,5.49-0.04c3.6-0.49,5.63,0.29,6.8,4.34c1.18,4.08,5.36,5.3,9.34,5.32
		c4.15,0.03,8.41-0.17,11.02-4.37c1.96-3.14,0.72-5.79-1.24-8.22c-2.57-3.18-6.1-5.09-9.71-6.86c-6.73-3.28-13.52-6.49-19.77-10.65
		c-7.55-5.04-12.31-11.83-11.36-21.3c0.94-9.32,6.75-15,15.28-17.9c14.81-5.03,29.14-4.84,42.17,5.05c4.5,3.42,6.25,8.45,7.18,13.84
		c0.44,2.57-0.85,3.27-3.05,3.3c-5.66,0.07-11.32,0.08-16.98,0.29c-2.55,0.1-3.09-1.56-3.51-3.37c-0.89-3.87-3.99-4.63-7.19-5.07
		c-3.75-0.52-7.53-0.24-10.09,2.93c-2.28,2.82-0.96,5.74,1.06,8.15c2.18,2.59,5.15,4.18,8.25,5.48c7.39,3.09,14.57,6.58,21.3,10.92
		c7.8,5.04,12.58,12.08,12.07,21.57c-0.52,9.66-6.41,16.06-14.96,19.52c-14.11,5.71-28.33,5.43-42.04-1.54
		c-7.03-3.57-10.57-9.82-11.84-17.52c-0.47-2.84,0.32-4.07,3.28-3.95c2.83,0.12,5.66,0.03,8.49,0.03
		C1380.55,1219.24,1380.55,1219.26,1380.55,1219.27z"/>
	<path class="st2" d="M2095.3,1219.28c1.83,0,3.67,0.12,5.49-0.03c3.29-0.26,5.56-0.45,6.57,4.2c0.87,4.01,5.51,5.53,9.74,5.51
		c4.4-0.02,9.03-0.47,11.09-5.13c2.13-4.81-1.14-8.12-4.66-10.39c-4.73-3.06-9.88-5.47-14.91-8.05c-4.6-2.35-9.2-4.7-13.27-7.91
		c-6.66-5.25-10.76-11.8-9.57-20.66c1.17-8.69,6.64-13.91,14.43-16.96c12.56-4.91,25.07-4.55,37.36,0.95
		c7.46,3.34,11.32,9.45,12.84,17.3c0.54,2.78-0.05,4.01-3.23,3.79c-3.97-0.28-7.99-0.14-11.98,0.01c-4.15,0.16-7.61,0.67-9.51-4.97
		c-1.34-3.97-6.61-3.86-10.66-3.26c-2.65,0.39-5.42,1.24-6.12,4.34c-0.95,4.2,1.45,6.84,4.63,9.13c2.46,1.78,5.18,2.99,7.92,4.19
		c6.42,2.8,12.69,5.86,18.56,9.7c8.12,5.31,12.96,12.51,12.03,22.51c-0.9,9.69-6.91,15.66-15.61,18.95
		c-13.71,5.19-27.41,5.01-40.67-1.56c-7.6-3.76-11.29-10.49-12.69-18.66c-0.39-2.31,0.71-3.03,2.73-3.03c3.16-0.01,6.33,0,9.49,0
		C2095.3,1219.26,2095.3,1219.27,2095.3,1219.28z"/>
	<path class="st2" d="M2608.24,1219.26c1.67,0,3.35,0.15,5-0.03c3.78-0.4,6.08,0.14,7.64,4.63c2.23,6.42,15.98,6.87,19.86,1.15
		c2.3-3.39,1.17-6.38-1.2-9.07c-2.69-3.06-6.25-4.9-9.86-6.68c-6.72-3.32-13.54-6.47-19.75-10.71
		c-7.53-5.15-12.04-12.08-10.91-21.53c1.09-9.1,6.98-14.48,15.2-17.49c12.83-4.7,25.53-4.22,37.78,1.94
		c6.71,3.38,10.28,9.21,11.56,16.57c0.48,2.75-0.66,3.63-3.17,3.66c-5.5,0.05-11,0.08-16.49,0.31c-2.35,0.1-3.1-1.1-3.85-3.01
		c-2.35-6.02-13.07-7.67-17.11-2.65c-2.32,2.88-1.18,5.72,0.79,8.18c2.13,2.65,5.1,4.24,8.19,5.56c7.51,3.21,14.91,6.66,21.73,11.19
		c7.56,5.02,12.29,11.88,11.8,21.22c-0.53,9.92-6.55,16.38-15.3,19.83c-13.96,5.51-28.05,5.29-41.61-1.59
		c-7.05-3.58-10.54-9.83-11.94-17.49c-0.59-3.26,0.61-4.24,3.63-4.1c2.66,0.13,5.33,0.03,8,0.03
		C2608.24,1219.21,2608.24,1219.24,2608.24,1219.26z"/>
	<path class="st2" d="M1696.5,1230c-0.33,0-0.67,0-1,0c-10.68-0.05-10.76-0.07-13.5,10.08c-0.76,2.84-1.96,4.26-5.11,4.13
		c-4.99-0.21-10-0.22-14.98,0c-3.77,0.17-4.12-1.25-3.11-4.46c5.31-16.81,10.44-33.68,15.67-50.52c2.76-8.9,5.72-17.73,8.3-26.68
		c0.89-3.11,2.26-4.34,5.54-4.2c5.48,0.23,10.99,0.15,16.48-0.02c2.39-0.07,3.6,0.7,4.32,3.04c8.13,26.39,16.32,52.76,24.54,79.12
		c0.79,2.52,0.43,3.69-2.59,3.62c-5.16-0.13-10.33-0.05-15.48,0.2c-3.07,0.15-4.37-1.14-5.29-3.95c-1.1-3.38-0.07-8.24-3.45-9.85
		c-2.84-1.36-6.85-0.28-10.34-0.28C1696.5,1230.16,1696.5,1230.08,1696.5,1230z M1696,1181.39c-1.89,9.96-3.95,19.78-6.52,29.48
		c-0.21,0.78-0.52,1.57,0.33,2.21c0.56,0.43,11.68,0.4,12.32,0c0.89-0.55,0.86-1.37,0.61-2.17
		C1699.74,1201.27,1698.4,1191.27,1696,1181.39z"/>
	<path class="st2" d="M1298.34,1158.39c12.03-0.03,12.02-0.03,15.55,11.48c7.03,22.89,14.08,45.77,21.13,68.65
		c1.69,5.5,1.7,5.52-3.95,5.62c-4.49,0.08-9-0.11-13.48,0.19c-3.15,0.21-4.41-1.15-5.25-3.96c-0.98-3.31-0.37-8.15-3.08-9.6
		c-3.01-1.61-7.42-0.75-11.22-0.76c-11.13-0.03-11.24-0.02-14.32,10.48c-0.85,2.9-2.03,4-5.19,3.79c-4.97-0.33-9.98-0.17-14.97,0.03
		c-3.54,0.14-3.84-1.4-2.94-4.27c6.9-22.05,13.74-44.13,20.6-66.19c1.13-3.65,2.44-7.26,3.36-10.97c0.85-3.45,2.57-5.04,6.27-4.56
		C1293.31,1158.65,1295.84,1158.39,1298.34,1158.39z M1298.44,1181.63c-0.32,0.01-0.63,0.03-0.95,0.04
		c-0.59,3.5-1.13,7.01-1.8,10.49c-0.72,3.76-1.46,7.52-2.37,11.23c-2.61,10.58-2.65,10.5,8.58,10.12c2.72-0.09,3.47-0.68,2.71-3.52
		c-1.47-5.45-2.53-11.01-3.72-16.53C1300.02,1189.53,1299.25,1185.58,1298.44,1181.63z"/>
	<path class="st2" d="M1987.65,1201.27c0-12.83,0.07-25.65-0.05-38.48c-0.03-3.13,0.87-4.43,4.23-4.41
		c16.49,0.1,32.98,0.02,49.47-0.07c2.57-0.01,3.6,0.94,3.5,3.53c-0.57,15.29,3.22,13.09-12.32,13.23c-6,0.05-12,0.3-17.99,0.01
		c-3.94-0.19-5.1,1.3-4.42,4.89c0.06,0.32,0.01,0.66,0.02,1c0.12,11.75,0.12,11.74,12.17,11.7c5.16-0.02,10.33,0.08,15.49-0.04
		c2.66-0.06,3.85,0.65,3.93,3.63c0.35,12.37,0.45,12.38-11.95,12.47c-5.5,0.04-11,0.16-16.49-0.03c-2.47-0.08-3.25,0.75-3.19,3.1
		c0.1,3.99,0.17,8-0.09,11.99c-0.21,3.23,1.19,3.89,4.1,3.84c9.33-0.14,18.66,0.09,27.98-0.12c3.53-0.08,4.54,1.03,4.49,4.55
		c-0.17,12.2-0.04,12.2-12.39,12.21c-13.66,0.01-27.32-0.16-40.98,0.11c-4.76,0.09-5.85-1.68-5.75-6.13
		c0.28-12.32,0.1-24.65,0.1-36.97C1987.57,1201.27,1987.61,1201.27,1987.65,1201.27z"/>
	<path class="st2" d="M983.86,1200.93c0-12.48,0.12-24.97-0.07-37.45c-0.06-3.9,1.2-5.2,5.14-5.16c16.31,0.15,32.62,0.06,48.94-0.07
		c2.86-0.02,3.66,0.95,3.67,3.77c0.05,13.05,0.14,13.03-13.08,13.02c-6.16-0.01-12.32,0.19-18.47,0.11
		c-2.39-0.03-3.24,0.72-3.1,3.14c0.21,3.65,0.25,7.33,0.09,10.98c-0.12,2.72,1.07,3.37,3.54,3.35c7.82-0.08,15.65,0.13,23.47-0.02
		c3.12-0.06,4.42,0.68,4.42,4.15c0.01,11.86,0.14,11.85-11.91,11.84c-5.33-0.01-10.66,0.11-15.98-0.04
		c-2.46-0.07-3.68,0.39-3.53,3.22c0.21,3.98,0.19,8-0.08,11.98c-0.22,3.15,0.97,3.97,3.97,3.91c9.32-0.18,18.64,0.04,27.96-0.17
		c3.14-0.07,4.36,0.56,4.41,4.02c0.17,12.7,0.31,12.72-12.24,12.77c-13.98,0.06-27.97-0.06-41.95,0.21c-4,0.08-5.22-1.26-5.18-5.11
		c0.16-12.81,0.06-25.63,0.06-38.45C983.91,1200.93,983.88,1200.93,983.86,1200.93z"/>
	<path class="st2" d="M1899.61,1201.48c0,5.33-0.08,10.66,0.02,15.98c0.12,6.25,2.96,10.06,8.03,11.05
		c6.81,1.34,13.52-1.53,15.31-7.18c0.97-3.07,2.39-3.78,5.32-3.61c4.81,0.27,9.65,0.26,14.47,0.15c3.33-0.07,3.83,1.28,3.19,4.3
		c-2.39,11.42-9.13,18.62-20.35,21.58c-11.23,2.96-22.4,2.94-33.34-1.37c-10.43-4.11-15.78-12.04-16.08-23.06
		c-0.33-11.98-0.44-23.99,0.01-35.96c0.45-11.76,6.26-20.21,17.78-23.95c14.83-4.82,29.21-4.46,42.42,4.8
		c6,4.2,7.98,10.83,9.49,17.59c0.44,1.98-0.5,2.66-2.43,2.67c-5.66,0.02-11.32,0.05-16.98,0.29c-2.43,0.1-2.95-1.23-3.65-3.12
		c-2.38-6.4-7.46-9.15-14.22-8c-6.14,1.05-8.94,4.88-8.98,12.36C1899.59,1191.16,1899.61,1196.32,1899.61,1201.48z"/>
	<path class="st2" d="M1768.02,1201.43c0-5-0.01-9.99,0-14.99c0.03-15.16,6.14-23.96,20.62-27.93c13.66-3.74,27.07-3.06,39.2,5.37
		c6.2,4.31,8.43,10.9,9.89,17.88c0.4,1.9-0.26,2.74-2.3,2.74c-5.83,0.01-11.66,0.09-17.48,0.28c-2.27,0.08-2.57-1.33-3.16-3.01
		c-2.33-6.57-7.44-9.29-14.59-8c-6.05,1.1-8.66,4.64-8.71,12c-0.06,10.16-0.09,20.32-0.06,30.48c0.02,7.33,2.81,11.35,8.39,12.29
		c7.26,1.23,12.87-1.62,15.24-7.98c0.65-1.74,1.21-2.93,3.36-2.86c5.32,0.15,10.65,0.25,15.98,0.15c3.7-0.07,3.89,1.55,3.26,4.68
		c-2.35,11.55-9.36,18.44-20.55,21.33c-10.73,2.77-21.43,2.73-31.94-1.08c-11.35-4.12-16.87-12.46-17.13-24.38
		C1767.92,1212.75,1768.02,1207.09,1768.02,1201.43z"/>
	<path class="st2" d="M699.22,1209.72c0,9.82-0.14,19.65,0.07,29.46c0.08,3.53-0.68,5.24-4.61,5.06c-4.65-0.22-9.34-0.2-13.97,0.19
		c-4.22,0.36-4.97-1.59-4.95-5.24c0.12-19.81-0.06-39.62,0.17-59.43c0.05-3.97-1.3-4.84-4.84-4.65c-4.48,0.24-8.99-0.02-13.48,0.08
		c-2.53,0.05-3.39-0.92-3.56-3.5c-0.89-13.35-0.96-13.4,12.04-13.46c16.65-0.08,33.3,0.05,49.94-0.14c3.54-0.04,4.93,0.52,4.82,4.56
		c-0.34,12.44-0.15,12.44-12.6,12.43c-9.16-0.01-9.18-0.01-9.2,9.16c-0.02,8.49,0,16.98,0,25.47
		C699.1,1209.72,699.16,1209.72,699.22,1209.72z"/>
	<path class="st2" d="M2441.94,1200.9c0,12.98-0.1,25.97,0.07,38.95c0.04,3.26-0.89,4.47-4.2,4.35c-4.82-0.17-9.65-0.04-14.48,0.12
		c-2.96,0.1-4.2-1.06-4.19-4.07c0.09-26.13,0.15-52.26,0.12-78.39c0-2.96,1.32-3.65,3.96-3.58c4.82,0.12,9.66,0.18,14.48-0.07
		c3.29-0.17,4.27,0.93,4.22,4.24c-0.19,12.81-0.08,25.63-0.08,38.45C2441.88,1200.9,2441.91,1200.9,2441.94,1200.9z"/>
	<path class="st2" d="M1220.98,1201.41c0,12.82-0.1,25.64,0.07,38.46c0.04,3.25-0.93,4.48-4.22,4.36c-4.82-0.17-9.66-0.08-14.48,0.1
		c-3.09,0.12-4.09-1.27-4.08-4.17c0.09-26.14,0.15-52.28,0.14-78.41c0-2.7,1.26-3.44,3.67-3.4c4.99,0.08,9.99,0.2,14.98,0
		c3.17-0.13,3.93,1.13,3.9,4.1c-0.13,12.98-0.06,25.97-0.06,38.96C1220.92,1201.41,1220.95,1201.41,1220.98,1201.41z"/>
	<path class="st2" d="M1676.07,824.37c-25.7-2.12-51.24,0.64-76.81,2.56c-2.15,0.16-4.33,0.37-6.48,0.23
		c-2.91-0.19-3.7-2.24-3.72-4.85c-0.01-2.35-0.33-4.79,3.05-5.08c5.8-0.5,11.6-1.05,17.4-1.54c8.96-0.75,17.94-1.27,26.87-2.25
		c26.22-2.9,52.19,0.75,78.24,2.63c3.32,0.24,6.65,0.42,9.97,0.55c3.46,0.13,5.77,1.22,5.55,5.3c-0.22,4.08-2.43,5.58-6.21,5.35
		c-11.63-0.69-23.27-1.4-34.9-2.11C1684.71,824.91,1680.39,824.64,1676.07,824.37z"/>
	<path class="st2" d="M1726.33,750.76c0.12,1.23-0.2,2.34-1.08,3.2c-3.81,3.7-7.12,7.91-11.41,11.11c-1.55,1.16-3.12,1.7-5.08,0.8
		c-9.73-4.48-13.11-13.63-8.17-23.01c3.33-6.31,6.85-12.54,10.61-18.6c2.03-3.26,4.67-3.06,6.64-0.05
		C1719.13,726.17,1726.28,748.56,1726.33,750.76z"/>
	<path class="st2" d="M1594.35,746.92c0.74-6.75,4.03-15.05,8.09-23.07c1.36-2.68,3.62-3.05,5.45-0.43
		c5.73,8.19,9.69,17.34,13.98,26.31c0.8,1.67-0.21,3.26-1.22,4.6c-1.99,2.65-4,5.3-6.12,7.84c-3.88,4.66-6.64,5.11-11.52,1.65
		C1597.99,760.27,1593.74,756.14,1594.35,746.92z"/>
	<path class="st2" d="M1776.52,697.31c0.08,4.25-3.51,8.35-7.36,8.4c-4.31,0.06-7.25-3.07-7.23-7.68c0.02-4.24,3.84-8.52,7.53-8.45
		C1773.02,689.65,1776.44,693.4,1776.52,697.31z"/>
	<path class="st2" d="M1558.01,697.87c0.08,4.47-3.16,8.14-7.12,8.07c-3.92-0.07-7.41-3.75-7.51-7.91c-0.1-4.32,3.13-8.26,6.9-8.41
		C1554.24,689.47,1557.93,693.4,1558.01,697.87z"/>
	<path class="st2" d="M1652.6,688.88c0.12-4.1,3.68-7.87,7.44-7.87c3.99,0,7.2,3.9,7.08,8.59c-0.11,4.26-3.67,8.1-7.3,7.89
		C1655.75,697.26,1652.47,693.35,1652.6,688.88z"/>
	<path class="st2" d="M1710.65,713.58c0.13-2.85,0.92-5.55,4.43-5.29c2.99,0.22,5.69,2.06,5.61,5.25c-0.07,2.91-1.93,5.31-5.45,5.31
		C1711.77,718.84,1710.58,716.78,1710.65,713.58z"/>
	<path class="st2" d="M1603.91,707.81c3.36,0.51,5.55,2.62,5.6,5.58c0.05,3.17-2.86,4.89-5.69,5.28c-3.67,0.51-4.36-2.69-4.51-5.3
		C1599.12,710.38,1601.04,708.52,1603.91,707.81z"/>
	<path class="st0" d="M1601.57,394.11c0-9.48,0.04-18.97-0.03-28.45c-0.02-2.58,0.55-4.03,3.59-3.94
		c18.62,0.6,37.27-0.89,55.87,0.81c3.46,0.32,6.93,0.89,10.31,1.72c15.95,3.88,23.82,13.72,23.65,29.31
		c-0.16,14.61-9.23,24.87-24.32,28.65c-21.81,5.47-43.98,3.77-66.06,4.19c-3.14,0.06-2.98-1.8-2.98-3.84c0-9.48,0-18.97,0-28.45
		C1601.6,394.11,1601.59,394.11,1601.57,394.11z"/>
	<path class="st0" d="M2076.46,394.57c0-9.49,0.03-18.98-0.02-28.47c-0.01-2.58,0.15-4.56,3.63-4.45
		c19.29,0.62,38.63-0.89,57.9,1.01c4.31,0.43,8.54,1.36,12.66,2.75c13.15,4.43,20.16,15.18,19.35,29.62
		c-0.73,13.04-9.83,23.39-22.42,26.7c-22.43,5.89-45.28,4.25-68.04,4.67c-3.18,0.06-2.93-1.85-2.93-3.87c0-9.32,0-18.64,0-27.96
		C2076.53,394.57,2076.49,394.57,2076.46,394.57z"/>
	<path class="st0" d="M1641.68,1013.01c-11.06-0.51-21.22-3.36-27.97-13.31c-5.61-8.28-5.24-18.3,1.18-25.92
		c3.54-4.2,7.98-7.48,12.51-10.62c1.83-1.27,2.84-0.74,4.24,0.53c13.68,12.4,27.71,24.38,42.32,35.69c1.64,1.27,2.41,2.27-0.03,3.55
		C1663.86,1008.23,1653.49,1012.57,1641.68,1013.01z"/>
	<path class="st0" d="M1673.15,886.83c0.09,5.17-1.91,8.79-4.48,12.12c-4.35,5.62-10.14,9.53-16.13,13.2
		c-1.83,1.12-3.16,1.19-4.71-0.6c-4.03-4.66-8.2-9.22-11.06-14.73c-4.74-9.15-1.37-18.16,8.12-22.13
		c10.71-4.47,23.12-0.97,27.05,7.6C1672.73,883.99,1673.24,885.71,1673.15,886.83z"/>
	<path class="st0" d="M1671.63,783.77c-1.36,6.6-5.35,11.83-10.47,16.24c-1.62,1.4-3.12-0.29-4.22-1.49
		c-3.62-3.95-6.27-8.58-9.09-13.09c-0.64-1.03-1.09-2.22-0.47-3.31c2.95-5.19,5.55-10.64,10.07-14.75c1.37-1.25,3.02-1.6,4.52-0.28
		C1666.98,771.47,1670.64,776.68,1671.63,783.77z"/>
	<path class="st0" d="M897.75,1218.38c0.14-9.52,0.14-9.52,9.7-9.16c1.49,0.06,3.03,0,4.45,0.38c4.16,1.09,7.14,3.34,7.51,8.09
		c0.35,4.5-2.01,7.1-5.77,8.9c-1.87,0.89-3.86,0.91-5.83,1.04C897.61,1228.29,897.61,1228.28,897.75,1218.38z"/>
	<path class="st0" d="M897.75,1183.42c0.06-9.63,0.06-9.63,9.74-8.43c5.53,0.69,8.57,3.9,8.57,9.05c0,5.03-3.23,8.09-9,8.55
		C897.69,1193.34,897.69,1193.34,897.75,1183.42z"/>
	<path class="st0" d="M2510.06,1201.56c0-5.48-0.2-10.97,0.05-16.44c0.34-7.38,4.68-11.22,12.37-11.41
		c7.29-0.17,12.27,3.95,12.46,11.25c0.29,10.95,0.25,21.93-0.14,32.88c-0.25,7.23-5.08,10.98-12.8,10.88
		c-7.24-0.09-11.49-4.03-11.93-11.22c-0.17-2.65-0.11-5.31-0.13-7.97c-0.02-2.66,0-5.32,0-7.97
		C2509.97,1201.56,2510.01,1201.56,2510.06,1201.56z"/>
	<path class="st0" d="M1109.25,1187.51c0-1.63-0.27-2.59,0.05-3.26c1.42-2.98-3.68-8.53,3.28-9.21c11.57-1.14,16.38,1.55,17.8,9.39
		c1.25,6.89-1.51,12.1-7.52,13.68c-4.18,1.1-9.43,2.63-12.55,0.38C1107.16,1196.19,1109.88,1190.73,1109.25,1187.51z"/>
	<path class="st0" d="M2330.26,1186.93c0-0.66-0.13-1.36,0.02-1.99c0.8-3.2-2.27-8.34,1.38-9.38c5.18-1.48,11.45-2.03,16.22,1.99
		c3.89,3.27,4.52,8.06,3.28,12.81c-1.55,5.91-4.64,7.98-11.87,8.55c-1.82,0.14-3.66-0.02-5.48,0.16c-2.82,0.28-3.91-0.78-3.68-3.67
		c0.23-2.81,0.05-5.64,0.05-8.47C2330.21,1186.93,2330.23,1186.93,2330.26,1186.93z"/>
	<path class="st0" d="M2239.26,1201.72c0,5.48,0.33,10.98-0.08,16.43c-0.54,7.01-5.16,10.67-12.56,10.65
		c-7.01-0.01-11.97-4.17-12.14-11.06c-0.27-11.12-0.21-22.26,0.1-33.38c0.18-6.53,4.97-10.43,12.08-10.69
		c6.7-0.24,11.81,3.34,12.39,9.64c0.55,6.09,0.12,12.26,0.12,18.4C2239.2,1201.72,2239.23,1201.72,2239.26,1201.72z"/>
	<path class="st0" d="M1541.72,1230.6c-4.94,0.05-8.75-2.47-9.6-6.33c-0.76-3.46,2.47-10.66,5.4-12.3c1.55-0.86,2.54-0.08,3.46,0.92
		c3.49,3.79,6.94,7.63,10.42,11.42c1.15,1.25,2.03,2.47-0.21,3.4C1548.13,1228.98,1545.14,1230.5,1541.72,1230.6z"/>
	<path class="st0" d="M1535.97,1177.09c-0.02-3.61,2.78-6.33,6.79-6.3c3.88,0.03,6.21,1.9,6.28,6.01
		c0.05,3.24-4.88,10.36-7.26,10.51C1539.99,1187.42,1535.99,1180.39,1535.97,1177.09z"/>
	<path class="st0" d="M1696,1181.39c2.4,9.89,3.74,19.89,6.74,29.53c0.25,0.79,0.28,1.61-0.61,2.17c-0.64,0.4-11.76,0.42-12.32,0
		c-0.85-0.64-0.54-1.43-0.33-2.21C1692.05,1201.16,1694.1,1191.34,1696,1181.39z"/>
	<path class="st0" d="M1298.44,1181.63c0.81,3.94,1.59,7.89,2.44,11.83c1.19,5.52,2.26,11.08,3.72,16.53
		c0.76,2.83,0.01,3.42-2.71,3.52c-11.22,0.38-11.18,0.46-8.58-10.12c0.91-3.71,1.65-7.47,2.37-11.23c0.67-3.48,1.2-6.99,1.8-10.49
		C1297.8,1181.66,1298.12,1181.64,1298.44,1181.63z"/>
</g>
</svg>
